<svg width="429" height="89" viewBox="0 0 429 89" fill="none" xmlns="http://www.w3.org/2000/svg">
<g clip-path="url(#clip0_6_74)">
<path d="M44.1202 0C19.754 0 0 19.754 0 44.1202C0 68.4865 19.754 88.2405 44.1202 88.2405C68.4865 88.2405 88.2405 68.4865 88.2405 44.1202C88.2405 19.754 68.4865 0 44.1202 0ZM11.835 23.1479L13.619 24.9319V36.2012L8.09306 30.6318C9.05031 27.9776 10.3556 25.4975 11.835 23.1479ZM44.1202 82.584C22.8868 82.584 5.65644 65.3536 5.65644 44.1202C5.65644 40.1607 6.2656 36.3318 7.35337 32.7638L13.6625 39.073V51.4736L13.619 51.5171L23.7135 61.6117C22.1471 63.8743 22.3647 67.0071 24.3662 69.0086C26.6288 71.2712 30.2837 71.2712 32.5463 69.0086C34.8089 66.746 34.8089 63.0911 32.5463 60.8285C30.5448 58.827 27.412 58.6094 25.1494 60.1758L15.664 50.6904V41.118L22.3647 47.8187C20.7983 50.0813 21.0159 53.2141 23.0174 55.2156C25.2799 57.4781 28.9349 57.4781 31.1974 55.2156C33.46 52.953 33.46 49.2981 31.1974 47.0355C29.1959 45.034 26.0631 44.8164 23.8006 46.3828L15.664 38.2462V24.1487L13.0098 21.4945C13.9235 20.2327 14.9243 19.0579 15.9686 17.9266L23.496 25.367V34.3302L23.4525 34.3738L41.292 52.2133C39.7256 54.4759 39.9432 57.6087 41.9447 59.6102C44.2073 61.8728 47.8622 61.8728 50.1248 59.6102C52.3873 57.3476 52.3873 53.6927 50.1248 51.4301C48.1233 49.4286 44.9905 49.211 42.7279 50.7774L25.4975 33.547V24.5838L17.4044 16.4472C17.9701 15.9251 18.5357 15.4029 19.1449 14.8808L59.3491 55.085C57.7827 57.3476 58.0003 60.4804 60.0018 62.4819C62.3079 64.788 66.0933 64.7445 68.3559 62.3079C70.4445 60.0453 70.3574 56.4774 68.2254 54.3018C66.2239 52.2568 63.0476 52.0393 60.785 53.6492L20.7113 13.5755C21.3204 13.0968 21.9731 12.6182 22.6693 12.1831L36.4623 25.9761H45.3821L51.4736 32.0677C49.9072 34.3302 50.1248 37.463 52.1263 39.4646C54.3889 41.7271 58.0438 41.7271 60.3064 39.4646C62.5689 37.202 62.5689 33.547 60.3064 31.2845C58.3049 29.283 55.1721 29.0654 52.9095 30.6318L46.2088 23.9311H37.289L24.3662 11.0953C28.2387 8.78924 32.5898 7.09231 37.202 6.2656L44.9905 14.0541C43.4241 16.3167 43.6416 19.4495 45.6431 21.451C47.9057 23.7135 51.5606 23.7135 53.8232 21.451C56.0858 19.1884 56.0858 15.5335 53.8232 13.2709C51.8217 11.2694 48.6889 11.0518 46.4263 12.6182L39.6821 5.91751C41.118 5.74346 42.5974 5.65644 44.1202 5.65644C65.3536 5.65644 82.584 22.8868 82.584 44.1202C82.584 65.3536 65.3536 82.584 44.1202 82.584ZM25.8021 62.2208C27.2814 60.7415 29.6746 60.7415 31.1539 62.2208C32.6333 63.7002 32.6333 66.0933 31.1539 67.5727C29.6746 69.0521 27.2814 69.0521 25.8021 67.5727C24.3227 66.0933 24.3227 63.7002 25.8021 62.2208ZM24.4532 48.4278C25.9326 46.9485 28.3257 46.9485 29.8051 48.4278C31.2845 49.9072 31.2845 52.3003 29.8051 53.7797C28.3257 55.2591 25.9326 55.2591 24.4532 53.7797C22.9739 52.3438 22.9739 49.9072 24.4532 48.4278ZM43.337 52.8225C44.8164 51.3431 47.2095 51.3431 48.6889 52.8225C50.1683 54.3018 50.1683 56.6949 48.6889 58.1743C47.2095 59.6537 44.8164 59.6537 43.337 58.1743C41.9012 56.6949 41.9012 54.3018 43.337 52.8225ZM61.3941 55.7377C62.8735 54.2583 65.2666 54.2583 66.746 55.7377C68.2254 57.2171 68.2254 59.6102 66.746 61.0896C65.2666 62.5689 62.8735 62.5689 61.3941 61.0896C59.9148 59.6102 59.9148 57.2171 61.3941 55.7377ZM53.5621 32.7638C55.0415 31.2845 57.4346 31.2845 58.914 32.7638C60.3934 34.2432 60.3934 36.6363 58.914 38.1157C57.4346 39.5951 55.0415 39.5951 53.5621 38.1157C52.0828 36.6363 52.0828 34.2432 53.5621 32.7638ZM47.0355 14.6632C48.5149 13.1839 50.908 13.1839 52.3873 14.6632C53.8667 16.1426 53.8667 18.5357 52.3873 20.0151C50.908 21.4945 48.5149 21.4945 47.0355 20.0151C45.5561 18.5792 45.5561 16.1426 47.0355 14.6632Z" fill="#111111"/>
<path d="M129.761 9.20548C135.903 9.20548 140.721 11.4276 144.217 15.8719L139.947 18.9429C137.351 15.4474 133.905 13.6997 129.611 13.6997C126.115 13.6997 123.281 14.5985 121.109 16.3962C118.937 18.1939 117.801 20.6407 117.701 23.7368C117.701 26.4333 118.525 28.618 120.173 30.2908C121.821 31.9637 124.692 33.3743 128.787 34.5229C134.18 36.1208 137.775 37.5315 139.573 38.7549C141.371 39.9783 142.731 41.4889 143.655 43.2866C144.579 45.0843 145.041 47.3314 145.041 50.0279C145.041 54.3223 143.505 57.8553 140.434 60.6267C137.363 63.3982 133.406 64.8338 128.562 64.9337C120.922 64.9337 115.179 62.2621 111.334 56.919L116.053 53.7731C118.7 58.1674 122.745 60.3895 128.188 60.4395C131.733 60.4395 134.604 59.4532 136.801 57.4808C138.999 55.5083 140.097 53.024 140.097 50.0279C140.097 48.2801 139.785 46.8445 139.161 45.7209C138.537 44.5974 137.588 43.6236 136.315 42.7997C135.041 41.9758 133.418 41.2267 131.446 40.5526C129.473 39.8785 127.164 39.092 124.517 38.1931C120.522 36.8948 117.564 35.0722 115.641 32.7252C113.719 30.3782 112.757 27.3821 112.757 23.7368C112.757 19.4423 114.368 15.9468 117.589 13.2503C120.81 10.5537 124.867 9.20548 129.761 9.20548ZM158.074 46.2827C158.074 50.2276 159.472 53.5484 162.269 56.2449C165.065 58.9414 168.486 60.3396 172.53 60.4395C176.575 60.4395 179.859 59.1037 182.38 56.4321C184.902 53.7606 186.188 50.3774 186.238 46.2827C186.238 42.2879 184.989 38.9422 182.493 36.2456C179.996 33.5491 176.65 32.1759 172.456 32.1259C168.411 32.1259 165.015 33.4992 162.269 36.2456C159.522 38.9921 158.124 42.3378 158.074 46.2827ZM172.53 28.0812C177.824 28.0812 182.168 29.7915 185.564 33.212C188.959 36.6326 190.682 40.9895 190.732 46.2827C190.732 51.5759 189.034 55.9203 185.639 59.3159C182.243 62.7115 177.874 64.4343 172.53 64.4843C169.584 64.4843 166.85 63.8601 164.329 62.6117C161.807 61.3633 159.922 59.6655 158.673 57.5182H158.523V80.6634H154.029V28.98H158.523V35.0472H158.673C159.872 32.9499 161.744 31.2646 164.291 29.9912C166.838 28.7178 169.584 28.0812 172.53 28.0812ZM203.69 53.9978C203.69 55.8953 204.452 57.4433 205.975 58.6418C207.498 59.8402 209.383 60.4395 211.63 60.4395C215.675 60.4395 218.683 59.3783 220.656 57.2561C222.628 55.1338 223.615 52.25 223.615 48.6047V46.2078H218.222C213.628 46.2078 210.057 46.9069 207.51 48.3051C204.964 49.7033 203.69 51.6009 203.69 53.9978ZM213.877 28.0812C218.521 28.0812 221.967 29.1548 224.214 31.302C226.461 33.4492 227.609 36.4454 227.659 40.2904V50.5522C227.659 56.145 227.884 60.4894 228.334 63.5854H224.139C223.839 62.0374 223.69 60.1648 223.69 57.9677H223.54C221.043 62.3121 217.023 64.4843 211.48 64.4843C207.735 64.4843 204.764 63.5604 202.567 61.7128C200.37 59.8652 199.246 57.3684 199.196 54.2225C199.196 50.3774 200.856 47.4812 204.177 45.5337C207.498 43.5862 212.129 42.6124 218.072 42.6124H223.615V40.59C223.615 37.7437 222.741 35.6214 220.993 34.2232C219.245 32.825 216.873 32.1259 213.877 32.1259C209.882 32.1259 206.362 33.4243 203.316 36.0209L200.694 32.9499C202.342 31.3519 204.377 30.141 206.799 29.3171C209.221 28.4931 211.58 28.0812 213.877 28.0812ZM242.191 46.2827C242.191 50.4274 243.489 53.823 246.086 56.4696C248.682 59.1162 251.953 60.4395 255.898 60.4395C259.793 60.4395 263.151 59.1037 265.973 56.4321C268.794 53.7606 270.255 50.3774 270.354 46.2827C270.354 42.3877 268.969 39.067 266.197 36.3205C263.426 33.5741 259.968 32.1759 255.823 32.1259C251.928 32.1259 248.695 33.4492 246.123 36.0958C243.551 38.7424 242.241 42.138 242.191 46.2827ZM269.905 6.95837H274.399V63.5854H269.905V57.5182H269.755C268.507 59.7154 266.597 61.4257 264.025 62.6491C261.453 63.8725 258.744 64.4843 255.898 64.4843C250.755 64.4843 246.46 62.7989 243.015 59.4283C239.569 56.0576 237.796 51.6758 237.696 46.2827C237.696 41.1393 239.382 36.8449 242.752 33.3993C246.123 29.9537 250.505 28.181 255.898 28.0812C258.844 28.0812 261.566 28.6929 264.063 29.9163C266.559 31.1397 268.457 32.85 269.755 35.0472H269.905V6.95837ZM312.525 43.3615C312.525 40.2155 311.352 37.5565 309.005 35.3843C306.658 33.212 303.811 32.1259 300.466 32.1259C297.22 32.1259 294.423 33.212 292.076 35.3843C289.729 37.5565 288.356 40.2155 287.957 43.3615H312.525ZM300.765 28.0812C305.559 28.0812 309.454 29.6292 312.45 32.7252C315.446 35.8212 316.969 39.816 317.019 44.7097V47.4063H287.957C288.156 51.3012 289.442 54.4347 291.814 56.8066C294.186 59.1786 297.27 60.3895 301.065 60.4395C303.412 60.4395 305.646 59.8777 307.769 58.7541C309.891 57.6306 311.526 56.145 312.675 54.2974L315.971 57.0688C312.725 62.0124 307.731 64.4843 300.99 64.4843C295.697 64.4343 291.465 62.7115 288.294 59.3159C285.123 55.9203 283.512 51.5509 283.463 46.2078C283.463 41.0145 285.098 36.7075 288.369 33.287C291.639 29.8664 295.772 28.1311 300.765 28.0812ZM342.486 28.0812C343.335 28.0812 344.209 28.206 345.108 28.4557L344.584 32.875C344.034 32.6752 343.435 32.5754 342.786 32.5754C339.141 32.5754 336.357 33.6989 334.434 35.946C332.512 38.1931 331.551 41.1144 331.551 44.7097V63.5854H327.056V38.3429C327.056 37.8436 326.932 34.7226 326.682 28.98H331.176C331.276 32.4256 331.376 34.448 331.476 35.0472C334.072 30.4032 337.743 28.0812 342.486 28.0812ZM355.744 56.8441C356.743 56.8441 357.592 57.1936 358.291 57.8927C358.99 58.5918 359.34 59.4408 359.34 60.4395C359.34 61.4382 358.99 62.2871 358.291 62.9862C357.592 63.6853 356.743 64.0348 355.744 64.0348C354.746 64.0348 353.897 63.6853 353.198 62.9862C352.499 62.2871 352.149 61.4382 352.149 60.4395C352.149 59.4408 352.499 58.5918 353.198 57.8927C353.897 57.1936 354.746 56.8441 355.744 56.8441ZM378.964 45.0093H403.308L391.324 15.9468L378.964 45.0093ZM394.095 10.5537L416.416 63.5854H410.873L405.106 49.5036H377.017L371.025 63.5854H365.856L389.002 10.5537H394.095ZM429 10.5537V63.5854H424.056V10.5537H429Z" fill="#111111"/>
</g>
<defs>
<clipPath id="clip0_6_74">
<rect width="429" height="88.2405" fill="white"/>
</clipPath>
</defs>
</svg>
