<?xml version="1.0" encoding="UTF-8"?>
<svg width="89px" height="89px" viewBox="0 0 89 89" version="1.1" xmlns="http://www.w3.org/2000/svg" xmlns:xlink="http://www.w3.org/1999/xlink">
    <!-- Generator: Sketch 48 (47235) - http://www.bohemiancoding.com/sketch -->
    <title>Shape</title>
    <desc>Created with Sketch.</desc>
    <defs></defs>
    <g id="Page-1" stroke="none" stroke-width="1" fill="none" fill-rule="evenodd">
        <g id="icon" fill="#292929" fill-rule="nonzero">
            <path d="M44.1202,0 C19.754,0 0,19.754 0,44.1202 C0,68.4865 19.754,88.2405 44.1202,88.2405 C68.4865,88.2405 88.2405,68.4865 88.2405,44.1202 C88.2405,19.754 68.4865,0 44.1202,0 Z M11.835,23.1479 L13.619,24.9319 L13.619,36.2012 L8.09306,30.6318 C9.05031,27.9776 10.3556,25.4975 11.835,23.1479 Z M44.1202,82.584 C22.8868,82.584 5.65644,65.3536 5.65644,44.1202 C5.65644,40.1607 6.2656,36.3318 7.35337,32.7638 L13.6625,39.073 L13.6625,51.4736 L13.619,51.5171 L23.7135,61.6117 C22.1471,63.8743 22.3647,67.0071 24.3662,69.0086 C26.6288,71.2712 30.2837,71.2712 32.5463,69.0086 C34.8089,66.746 34.8089,63.0911 32.5463,60.8285 C30.5448,58.827 27.412,58.6094 25.1494,60.1758 L15.664,50.6904 L15.664,41.118 L22.3647,47.8187 C20.7983,50.0813 21.0159,53.2141 23.0174,55.2156 C25.2799,57.4781 28.9349,57.4781 31.1974,55.2156 C33.46,52.953 33.46,49.2981 31.1974,47.0355 C29.1959,45.034 26.0631,44.8164 23.8006,46.3828 L15.664,38.2462 L15.664,24.1487 L13.0098,21.4945 C13.9235,20.2327 14.9243,19.0579 15.9686,17.9266 L23.496,25.367 L23.496,34.3302 L23.4525,34.3738 L41.292,52.2133 C39.7256,54.4759 39.9432,57.6087 41.9447,59.6102 C44.2073,61.8728 47.8622,61.8728 50.1248,59.6102 C52.3873,57.3476 52.3873,53.6927 50.1248,51.4301 C48.1233,49.4286 44.9905,49.211 42.7279,50.7774 L25.4975,33.547 L25.4975,24.5838 L17.4044,16.4472 C17.9701,15.9251 18.5357,15.4029 19.1449,14.8808 L59.3491,55.085 C57.7827,57.3476 58.0003,60.4804 60.0018,62.4819 C62.3079,64.788 66.0933,64.7445 68.3559,62.3079 C70.4445,60.0453 70.3574,56.4774 68.2254,54.3018 C66.2239,52.2568 63.0476,52.0393 60.785,53.6492 L20.7113,13.5755 C21.3204,13.0968 21.9731,12.6182 22.6693,12.1831 L36.4623,25.9761 L45.3821,25.9761 L51.4736,32.0677 C49.9072,34.3302 50.1248,37.463 52.1263,39.4646 C54.3889,41.7271 58.0438,41.7271 60.3064,39.4646 C62.5689,37.202 62.5689,33.547 60.3064,31.2845 C58.3049,29.283 55.1721,29.0654 52.9095,30.6318 L46.2088,23.9311 L37.289,23.9311 L24.3662,11.0953 C28.2387,8.78924 32.5898,7.09231 37.202,6.2656 L44.9905,14.0541 C43.4241,16.3167 43.6416,19.4495 45.6431,21.451 C47.9057,23.7135 51.5606,23.7135 53.8232,21.451 C56.0858,19.1884 56.0858,15.5335 53.8232,13.2709 C51.8217,11.2694 48.6889,11.0518 46.4263,12.6182 L39.6821,5.91751 C41.118,5.74346 42.5974,5.65644 44.1202,5.65644 C65.3536,5.65644 82.584,22.8868 82.584,44.1202 C82.584,65.3536 65.3536,82.584 44.1202,82.584 Z M25.8021,62.2208 C27.2814,60.7415 29.6746,60.7415 31.1539,62.2208 C32.6333,63.7002 32.6333,66.0933 31.1539,67.5727 C29.6746,69.0521 27.2814,69.0521 25.8021,67.5727 C24.3227,66.0933 24.3227,63.7002 25.8021,62.2208 Z M24.4532,48.4278 C25.9326,46.9485 28.3257,46.9485 29.8051,48.4278 C31.2845,49.9072 31.2845,52.3003 29.8051,53.7797 C28.3257,55.2591 25.9326,55.2591 24.4532,53.7797 C22.9739,52.3438 22.9739,49.9072 24.4532,48.4278 Z M43.337,52.8225 C44.8164,51.3431 47.2095,51.3431 48.6889,52.8225 C50.1683,54.3018 50.1683,56.6949 48.6889,58.1743 C47.2095,59.6537 44.8164,59.6537 43.337,58.1743 C41.9012,56.6949 41.9012,54.3018 43.337,52.8225 Z M61.3941,55.7377 C62.8735,54.2583 65.2666,54.2583 66.746,55.7377 C68.2254,57.2171 68.2254,59.6102 66.746,61.0896 C65.2666,62.5689 62.8735,62.5689 61.3941,61.0896 C59.9148,59.6102 59.9148,57.2171 61.3941,55.7377 Z M53.5621,32.7638 C55.0415,31.2845 57.4346,31.2845 58.914,32.7638 C60.3934,34.2432 60.3934,36.6363 58.914,38.1157 C57.4346,39.5951 55.0415,39.5951 53.5621,38.1157 C52.0828,36.6363 52.0828,34.2432 53.5621,32.7638 Z M47.0355,14.6632 C48.5149,13.1839 50.908,13.1839 52.3873,14.6632 C53.8667,16.1426 53.8667,18.5357 52.3873,20.0151 C50.908,21.4945 48.5149,21.4945 47.0355,20.0151 C45.5561,18.5792 45.5561,16.1426 47.0355,14.6632 Z" id="Shape"></path>
        </g>
    </g>
</svg>
